# xmcd
#
# Track frame offsets:
#	150
#	3495
#	17065
#	23147
#	25162
#	40670
#	56490
#	68192
#	76532
#	94795
#	97725
#	107092
#	125862
#	135397
#	144532
#	158377
#	159725
#	171085
#	183415
#	207402
#
# Disc length: 2796 seconds
#
# Revision: 1
# Processed by: cddbd v1.4PL0 Copyright (c) Steve Scherf et al.
# Submitted via: CDmax 1.8
#
DISCID=f70aea14
DTITLE=Various Artist - A Tribute to Robert Altman's "Nashville"
DYEAR=2002
DGENRE=Country
TTITLE0=Steve Lang  - Speech #1
TTITLE1=Dave Gowans - 200 Years
TTITLE2=Corn Sisters - Oh These Troubled Times
TTITLE3=Steve Lang - Speech #2
TTITLE4=Dallas Good - Bluebird
TTITLE5=Dave Lang - For The Sake of the Children
TTITLE6=Dave Lang - Keep A-Goin
TTITLE7=Carl Newman - Memphis
TTITLE8=Neko Case - Rolling Stone
TTITLE9=Steve Lang - Speech #3
TTITLE10=Dottie Cormier - Tape Deck in His Tractor
TTITLE11=Kelly Hogan - Dues
TTITLE12=Sylvia Kenny - Since You've Gone
TTITLE13=Cindy Wolfe - I Never Get Enough
TTITLE14=Tolan McNeil - I'm Easy
TTITLE15=Jean Mark, Dave lang, Tom Holliston - "Elliott Gould"
TTITLE16=Carolyn Mark, Dave Lang - One, I Love You
TTITLE17=Carolyn Mark - My Idaho Home
TTITLE18=Robyn Carrigan - It Don't Worry Me
TTITLE19=Robert Dayton - Let Me Be the One
EXTD=
EXTT0=
EXTT1=
EXTT2=
EXTT3=
EXTT4=
EXTT5=
EXTT6=
EXTT7=
EXTT8=
EXTT9=
EXTT10=
EXTT11=
EXTT12=
EXTT13=
EXTT14=
EXTT15=
EXTT16=
EXTT17=
EXTT18=
EXTT19=***Bonus Track***
PLAYORDER=
